<svg width="128" height="32" viewBox="0 0 128 32" fill="none" xmlns="http://www.w3.org/2000/svg">
<path d="M20.1648 0.00195312C9.0281 0.00195312 0 9.32129 0 20.8173H40.3297C40.3297 9.32129 31.3016 0.00195312 20.1648 0.00195312Z" fill="#8564E7"/>
<path d="M0 20.8145H40.3297V21.1862C40.3297 26.6262 35.9196 31.0363 30.4796 31.0363H9.8501C4.41004 31.0363 0 26.6262 0 21.1862V20.8145Z" fill="#8564E7"/>
<path d="M13.5896 18.0553C12.329 17.7563 10.9183 18.0351 10.9006 16.5688C10.8823 15.0502 10.7505 12.7997 10.9411 11.2261C11.0344 10.2823 11.6559 9.69867 12.7001 9.42423C14.3191 9.03812 16.1513 8.9637 17.9368 9.36121C18.7248 9.56122 19.3583 9.97259 19.369 10.8628C19.4888 16.4655 19.9676 21.4353 15.2546 21.492C13.5801 21.6169 13.0489 20.9948 13.3959 19.367C13.5486 18.9986 13.5435 18.5796 13.5896 18.0553ZM23.9583 17.9306C22.6977 17.6315 21.2869 17.9103 21.2693 16.4441C21.251 14.9254 21.1192 12.6749 21.3097 11.1013C21.4031 10.1575 22.0246 9.57388 23.0688 9.29944C24.6878 8.91333 26.52 8.83891 28.3055 9.23642C29.0935 9.43643 29.727 9.8478 29.7377 10.738C29.8575 16.3407 30.3363 21.3105 25.6233 21.3672C23.9488 21.4921 23.4175 20.87 23.7646 19.2423C23.9173 18.8738 23.9122 18.4549 23.9583 17.9306Z" fill="white"/>
<path d="M55.6246 8.43395V0.300781H59.9861V8.43395H63.8842V12.7955H59.9861V30.1154H55.6246V12.7955H51.7266V8.43395H55.6246Z" fill="#8564E7"/>
<path d="M78.9596 23.6889V8.43395H83.3212V23.3307C83.3212 24.1033 83.581 24.7494 84.1008 25.2692C84.6205 25.7749 85.2386 26.0277 85.955 26.0277C87.6827 26.0277 88.5466 24.9531 88.5466 22.8039V8.43395H92.9293V23.6257C92.859 25.4799 92.1777 27.0531 90.8854 28.3455C89.5229 29.7221 87.8794 30.4104 85.955 30.4104C84.0165 30.4104 82.4222 29.7361 81.172 28.3876C79.8937 29.7361 78.2924 30.4104 76.3679 30.4104C74.4295 30.4104 72.779 29.7221 71.4164 28.3455C70.1241 27.0531 69.4498 25.4799 69.3936 23.6257V8.43395H73.7552V22.8039C73.7552 24.9531 74.6261 26.0277 76.3679 26.0277C77.0843 26.0277 77.7024 25.7749 78.2221 25.2692C78.6576 24.8337 78.9034 24.307 78.9596 23.6889Z" fill="#8564E7"/>
<path d="M124.934 8.43395L119.056 15.6822L127.231 30.1154H122.027L116.127 19.3063L115.937 19.538V30.1154H111.555V0.300781H115.937V12.5637L119.309 8.43395H124.934Z" fill="#8564E7"/>
<path d="M99.1925 21.1456L102.25 0.127849L104.408 0.441743L106.566 0.755638L103.509 21.7734L99.1925 21.1456ZM100.078 30.2809C99.2441 30.1596 98.5707 29.7636 98.0579 29.0928C97.5451 28.4221 97.3504 27.6627 97.4737 26.8148C97.597 25.9668 98 25.2944 98.6827 24.7975C99.3653 24.3006 100.124 24.1129 100.958 24.2342C101.778 24.3535 102.444 24.7485 102.957 25.4193C103.47 26.09 103.665 26.8494 103.541 27.6973C103.418 28.5453 103.015 29.2177 102.332 29.7146C101.65 30.2114 100.898 30.4002 100.078 30.2809Z" fill="#8564E7"/>
</svg>
